<svg width="1240" height="1240" viewBox="0 0 1240 1240" fill="none" xmlns="http://www.w3.org/2000/svg">
  <rect x="116" y="116" width="1008" height="1008" rx="222" ry="222" fill="white"/>
  <g transform="translate(337 299) scale(3.195)">
    <path d="M66.1778 6.57374C83.294 0.343966 101.007 -0.919191 117.739 2.04572L176.99 164.837C166.078 177.864 151.698 188.282 134.582 194.512C82.6841 213.402 25.2998 186.643 6.41057 134.745C-12.4787 82.8472 14.28 25.463 66.1778 6.57374Z" fill="#54C2F6" fill-opacity="0.7"/>
    <path d="M134.229 6.05797C151.345 12.2877 165.726 22.7056 176.638 35.732L117.386 198.524C100.654 201.489 82.9415 200.226 65.8252 193.996C13.9274 175.107 -12.8313 117.723 6.05794 65.8252C24.9472 13.9274 82.3314 -12.8313 134.229 6.05797Z" fill="#2563EB" fill-opacity="0.7"/>
  </g>
</svg>
